<svg version="1" xmlns="http://www.w3.org/2000/svg" width="626.667" height="626.667" viewBox="0 0 470.000000 470.000000"><path d="M71.2 245.7l.3 79.8h38l.3-26.1.2-26.2 24.3-.5c18.7-.3 25.5-.8 30.1-2.2 19.6-5.6 33.3-19.4 37.1-37.2 1.9-8.8 1.9-23.1 0-31.2-4-16.8-15.7-28-35-33.7-5.2-1.5-11.7-1.8-50.8-2.1l-44.7-.4.2 79.8zm75.5-48.5c5.7 1.4 11.4 6.8 13.1 12.4 1.5 5 1.6 14.6.1 19.7-.5 2.1-2.4 5.3-4 7.2-4.7 5.3-10.2 6.5-29.6 6.5H110v-47h16.1c8.8 0 18.1.5 20.6 1.2zM230 246v80h37v-53.6c0-29.4.4-53.3.8-53 .5.3 10.7 14 22.8 30.5 12 16.5 22.1 30 22.4 30.1.3 0 10.9-13.8 23.5-30.7l23-30.7.3 53.7.2 53.7h39V166h-38.6l-22.8 31c-12.6 17-22.9 31-23.1 31-.1 0-10.3-14-22.5-31l-22.3-31H230v80z"/></svg>