<svg version="1" xmlns="http://www.w3.org/2000/svg" width="1814.667" height="1814.667" viewBox="0 0 1361.000000 1361.000000"><path d="M726.7 76.6c-.1.1-11 .5-24.2.8-13.2.4-26.5.9-29.5 1.1-3 .2-10 .6-15.5 1-9.5.6-14.7 1-26 2-2.7.2-7.9.7-11.5 1-3.6.4-7.6.8-9 1-2.5.4-12.2 1.4-19 2-1.9.2-5.4.6-7.7.9-2.4.3-6 .8-8 1.1-9.5 1.1-13 1.6-15.3 2-1.4.2-4.5.7-7 1-2.5.4-5.7.8-7.1 1-1.4.3-4.1.7-6 .9-1.9.2-9.2 1.4-16.4 2.6-7.1 1.1-14.5 2.3-16.4 2.6-1.8.3-4.1.7-5 .9-5.8 1.1-19.2 3.5-22.1 4-1.9.3-8 1.4-13.5 2.5s-11.1 2.2-12.4 2.5c-1.4.2-7 1.4-12.5 2.6-5.6 1.1-11 2.2-12.1 2.5-1.1.2-4.5.9-7.5 1.6-3 .6-5.8 1.1-6.2 1-.4-.1-1.9.3-3.4.8-1.5.6-4.1 1.3-5.8 1.6-1.7.2-14.3 3.2-28.1 6.5-13.7 3.3-25.9 6.1-27 6.4-5.3 1-45.7 11.8-58.5 15.5-41.3 12-89.9 28.3-107.5 36-2.2.9-10.5 4.5-18.5 7.9-8 3.4-19.7 8.8-26 12l-11.5 5.8-.3 533.6-.2 533.7h343.5V837.4c0-290.9.3-437.8 1-438.3 1.9-1.3 19.7-9.3 25.4-11.3 20.3-7.1 55.4-16.4 73.1-19.2 1.9-.3 4.9-.8 6.5-1.1 5.1-.9 8.8-1.4 13-2 2.2-.3 4.9-.8 6.1-1 1.1-.3 5-.7 8.5-1 3.5-.3 7.8-.8 9.4-1 19.3-2.4 71.7-2.4 86.7 0 1.3.2 4.8.6 7.8 1 19.8 2.1 37.8 6.1 56 12.2 45 15.2 77.1 41.7 96.4 79.6 3.4 6.7 7.5 15.8 9 20.2 2.9 8.3 8.1 27.9 9.1 34.4.3 2 .7 4.6.9 5.6.2 1.1.7 4.9 1.1 8.5.4 3.6 1 7.4 1.3 8.5.3 1.1.6 168.3.8 371.5.1 203.2.3 369.8.3 370.2.1.5 77.3.8 171.6.8H1229l.1-3.3c.4-20-.1-807.5-.5-813.7-.5-7.9-1.1-15.3-2.1-29-1-12.4-2.2-21.6-5.1-40-10.9-68.3-34.6-125.2-70.7-170.2-8.7-11-27.9-30.7-36.2-37.3-2.7-2.2-5.8-4.8-6.9-5.7-9.3-8.3-38.3-27-57.8-37.1-28.3-14.8-67.7-29.7-98.3-37.3-29.2-7.3-48.8-11.2-74.5-14.9-14.3-2.1-15.6-2.3-22.5-3-3.3-.4-7.1-.8-8.5-1-3.9-.6-21.5-2.2-33-3-22.6-1.6-85.3-3.7-86.3-2.9z"/></svg>